<svg xmlns="http://www.w3.org/2000/svg" width="24" height="24" viewBox="0 0 24 24">
    <g fill="none" fill-rule="evenodd">
        <path fill="#1BB3E2" fill-rule="nonzero" stroke="#FFF" stroke-width="2" d="M8.775 21.13a9.609 9.609 0 0 1-.89-.367l-2.74 1.37-3.22-3.22 1.37-2.74a9.615 9.615 0 0 1-.369-.898L0 14.28V9.711l2.87-.936c.11-.308.233-.606.367-.89l-1.37-2.74 3.22-3.22 2.74 1.37c.286-.136.587-.259.898-.369L9.72 0h4.568l.936 2.87c.308.11.606.233.89.367l2.74-1.37 3.22 3.22-1.37 2.74c.134.284.257.582.366.89l2.871.936v4.578l-2.87.936c-.11.308-.233.606-.367.89l1.37 2.74-3.22 3.22-2.74-1.37a9.603 9.603 0 0 1-.882.364L14.298 24H9.711l-.936-2.87z"/>
        <path fill-rule="nonzero" d="M11.235 22h1.53l.823-2.53.294-.058c.706-.177 1.353-.47 2-.824l.294-.176 2.353 1.176 1.06-1.059-1.177-2.353.176-.294a7.536 7.536 0 0 0 .824-2l.059-.294L22 12.765v-1.53l-2.53-.823-.058-.294c-.177-.706-.47-1.353-.824-2l-.176-.294 1.176-2.353-1.059-1.06-2.353 1.177-.294-.176c-.647-.353-1.294-.647-2-.824l-.294-.059L12.765 2h-1.53l-.823 2.53-.294.058c-.706.177-1.353.47-2 .824l-.294.176L5.47 4.412 4.41 5.47l1.177 2.353-.176.294a7.536 7.536 0 0 0-.824 2l-.059.294L2 11.235v1.53l2.53.823.058.294c.177.706.47 1.353.824 2l.176.294-1.176 2.353 1.059 1.06 2.353-1.177.294.176c.647.353 1.294.647 2 .824l.294.059.823 2.529z"/>
        <text fill="#FFF" font-family="Verdana-Bold, Verdana" font-size="12" font-weight="bold" transform="translate(1 1)">
            <tspan x="9" y="15">i</tspan>
        </text>
    </g>
</svg>